# xmcd
#
# Track frame offsets:
#	183
#	13458
#	25158
#	41283
#	52608
#	65658
#	76683
#	89208
#	101658
#	115758
#	131883
#	146458
#	157958
#	171708
#
# Disc length: 2409 seconds
#
# Revision: 0
# Processed by: cddbd v1.5.1PL2 Copyright (c) Steve Scherf et al.
# Submitted via: dBpowerAMP V4.0
#
DISCID=bb09670e
DTITLE=diverse - Supergaudi Volksmusik ausser Rand un Band
DYEAR=1900
DGENRE=
TTITLE0=Peter Hinnen-Von den blauen Bergen kommen wir
TTITLE1=Maxl Graf-In Muenchen steht ein Hofbraeuhaus
TTITLE2=Bachler Buam-Resi i hol di mit meim Traktor ab
TTITLE3=Pitztaler Nachtigalln-Schneewalzer
TTITLE4=Kaiserlich Böhmische-Liechtensteiner Polka
TTITLE5=Claudia Engels-Du kannst nicht treu sein
TTITLE6=Conny Dellner-Bummelpetrus
TTITLE7=Bachler Buam-Veronika
TTITLE8=Heimatdou Judith Mel-Das ist die Liebe der Matrosen
TTITLE9=Muenchner Stadtmusikanten-Der Eiermann
TTITLE10=Medium Terzett-Der schoenste Platz ist immer an der Theke
TTITLE11=Horst Herrmann-Geh Alter schau mi net so deppert an
TTITLE12=Gudrun-Hand aufs Herz
TTITLE13=Dagmar Koller-Heut kommen d Engel auf Urlaub nach Wien
EXTD=Supergaudi Volksmusik ausser Rand un Band
EXTT0=
EXTT1=
EXTT2=
EXTT3=
EXTT4=
EXTT5=
EXTT6=
EXTT7=
EXTT8=
EXTT9=
EXTT10=
EXTT11=
EXTT12=
EXTT13=
PLAYORDER=
